<svg xmlns="http://www.w3.org/2000/svg" viewBox="0 0 1200 675" role="img" aria-labelledby="title desc">
  <title id="title">Abstract desk and notebook illustration</title>
  <desc id="desc">A calm editorial illustration with a notebook, pen, and blocks of colour.</desc>
  <rect width="1200" height="675" fill="#f7f4ee"/>
  <rect x="90" y="88" width="1020" height="499" rx="28" fill="#ffffff"/>
  <rect x="90" y="88" width="1020" height="499" rx="28" fill="none" stroke="#d9d5ca" stroke-width="4"/>
  <rect x="174" y="156" width="386" height="356" rx="20" fill="#e8efe9"/>
  <rect x="228" y="214" width="278" height="20" rx="10" fill="#146c64"/>
  <rect x="228" y="272" width="220" height="14" rx="7" fill="#667074"/>
  <rect x="228" y="314" width="252" height="14" rx="7" fill="#667074"/>
  <rect x="228" y="356" width="194" height="14" rx="7" fill="#667074"/>
  <path d="M690 180h214c36 0 65 29 65 65v164c0 36-29 65-65 65H690c-36 0-65-29-65-65V245c0-36 29-65 65-65Z" fill="#f0d38a"/>
  <path d="M728 274h164M728 322h124M728 370h152" stroke="#1d2528" stroke-width="16" stroke-linecap="round" opacity=".68"/>
  <path d="M942 496 1034 278" stroke="#0c4843" stroke-width="24" stroke-linecap="round"/>
  <path d="m1032 279 32-78 34 80Z" fill="#146c64"/>
  <circle cx="1018" cy="534" r="34" fill="#d96f45"/>
</svg>
